<svg width="78" height="19" viewBox="0 0 78 19" fill="none" xmlns="http://www.w3.org/2000/svg">
<path d="M5.65304 14.126C4.68237 14.126 3.85171 13.9207 3.16104 13.51C2.47037 13.0993 1.93837 12.516 1.56504 11.76C1.20104 11.004 1.01904 10.1033 1.01904 9.058C1.01904 8.274 1.12171 7.574 1.32704 6.958C1.54171 6.33267 1.84504 5.80533 2.23704 5.376C2.63837 4.93733 3.12837 4.60133 3.70704 4.368C4.28571 4.12533 4.93437 4.004 5.65304 4.004C6.23171 4.004 6.78237 4.088 7.30504 4.256C7.82771 4.41467 8.28037 4.65267 8.66304 4.97C8.78437 5.06333 8.86371 5.17067 8.90104 5.292C8.94771 5.404 8.95237 5.516 8.91504 5.628C8.88704 5.73067 8.83104 5.81933 8.74704 5.894C8.67237 5.95933 8.57904 5.992 8.46704 5.992C8.35504 5.992 8.22904 5.94533 8.08904 5.852C7.75304 5.58133 7.38437 5.38067 6.98304 5.25C6.58171 5.11933 6.14771 5.054 5.68104 5.054C4.94371 5.054 4.31837 5.21267 3.80504 5.53C3.29171 5.838 2.90437 6.29067 2.64304 6.888C2.38171 7.48533 2.25104 8.20867 2.25104 9.058C2.25104 9.90733 2.38171 10.6353 2.64304 11.242C2.90437 11.8393 3.29171 12.2967 3.80504 12.614C4.31837 12.922 4.94371 13.076 5.68104 13.076C6.13837 13.076 6.57237 13.0107 6.98304 12.88C7.39371 12.74 7.77171 12.5347 8.11704 12.264C8.25704 12.1707 8.38304 12.1287 8.49504 12.138C8.60704 12.138 8.70037 12.1707 8.77504 12.236C8.84971 12.3013 8.90104 12.3853 8.92904 12.488C8.96637 12.5907 8.96637 12.698 8.92904 12.81C8.90104 12.922 8.83104 13.02 8.71904 13.104C8.32704 13.44 7.86504 13.6967 7.33304 13.874C6.81037 14.042 6.25037 14.126 5.65304 14.126ZM12.9848 14.126C12.3221 14.126 11.7481 13.9813 11.2628 13.692C10.7774 13.4027 10.3994 12.9967 10.1288 12.474C9.86744 11.942 9.73677 11.3167 9.73677 10.598C9.73677 10.0567 9.81144 9.57133 9.96077 9.142C10.1101 8.70333 10.3294 8.33 10.6188 8.022C10.9081 7.714 11.2488 7.48067 11.6408 7.322C12.0421 7.154 12.4901 7.07 12.9848 7.07C13.6474 7.07 14.2214 7.21467 14.7068 7.504C15.1921 7.79333 15.5654 8.204 15.8268 8.736C16.0974 9.25867 16.2328 9.87933 16.2328 10.598C16.2328 11.1393 16.1581 11.6247 16.0088 12.054C15.8594 12.4833 15.6401 12.8567 15.3508 13.174C15.0614 13.482 14.7161 13.72 14.3148 13.888C13.9228 14.0467 13.4794 14.126 12.9848 14.126ZM12.9848 13.216C13.4048 13.216 13.7734 13.1133 14.0908 12.908C14.4081 12.7027 14.6508 12.404 14.8188 12.012C14.9961 11.62 15.0848 11.1487 15.0848 10.598C15.0848 9.74867 14.8934 9.1 14.5108 8.652C14.1374 8.204 13.6288 7.98 12.9848 7.98C12.5554 7.98 12.1821 8.08267 11.8648 8.288C11.5568 8.484 11.3141 8.778 11.1368 9.17C10.9688 9.55267 10.8848 10.0287 10.8848 10.598C10.8848 11.438 11.0761 12.0867 11.4588 12.544C11.8414 12.992 12.3501 13.216 12.9848 13.216ZM18.5241 14.098C18.3374 14.098 18.1974 14.0467 18.1041 13.944C18.0107 13.8413 17.9641 13.6967 17.9641 13.51V7.672C17.9641 7.48533 18.0107 7.34533 18.1041 7.252C18.1974 7.14933 18.3327 7.098 18.5101 7.098C18.6874 7.098 18.8227 7.14933 18.9161 7.252C19.0187 7.34533 19.0701 7.48533 19.0701 7.672V8.904L18.9161 8.708C19.0934 8.18533 19.3781 7.784 19.7701 7.504C20.1714 7.21467 20.6474 7.07 21.1981 7.07C21.7767 7.07 22.2434 7.21 22.5981 7.49C22.9621 7.76067 23.2047 8.18533 23.3261 8.764H23.1161C23.2841 8.24133 23.5827 7.83067 24.0121 7.532C24.4507 7.224 24.9594 7.07 25.5381 7.07C26.0514 7.07 26.4714 7.168 26.7981 7.364C27.1341 7.56 27.3861 7.85867 27.5541 8.26C27.7221 8.652 27.8061 9.15133 27.8061 9.758V13.51C27.8061 13.6967 27.7547 13.8413 27.6521 13.944C27.5587 14.0467 27.4187 14.098 27.2321 14.098C27.0547 14.098 26.9147 14.0467 26.8121 13.944C26.7187 13.8413 26.6721 13.6967 26.6721 13.51V9.814C26.6721 9.18867 26.5647 8.73133 26.3501 8.442C26.1354 8.14333 25.7714 7.994 25.2581 7.994C24.6981 7.994 24.2547 8.19 23.9281 8.582C23.6107 8.96467 23.4521 9.48733 23.4521 10.15V13.51C23.4521 13.6967 23.4007 13.8413 23.2981 13.944C23.2047 14.0467 23.0647 14.098 22.8781 14.098C22.7007 14.098 22.5607 14.0467 22.4581 13.944C22.3647 13.8413 22.3181 13.6967 22.3181 13.51V9.814C22.3181 9.18867 22.2061 8.73133 21.9821 8.442C21.7674 8.14333 21.4081 7.994 20.9041 7.994C20.3441 7.994 19.9007 8.19 19.5741 8.582C19.2567 8.96467 19.0981 9.48733 19.0981 10.15V13.51C19.0981 13.902 18.9067 14.098 18.5241 14.098ZM30.4863 16.618C30.2996 16.618 30.1596 16.5667 30.0663 16.464C29.973 16.3707 29.9263 16.2307 29.9263 16.044V7.672C29.9263 7.48533 29.973 7.34533 30.0663 7.252C30.1596 7.14933 30.295 7.098 30.4723 7.098C30.659 7.098 30.799 7.14933 30.8923 7.252C30.995 7.34533 31.0463 7.48533 31.0463 7.672V9.002L30.8923 8.806C31.0416 8.274 31.3356 7.854 31.7743 7.546C32.2223 7.22867 32.7543 7.07 33.3703 7.07C33.977 7.07 34.5043 7.21467 34.9523 7.504C35.4096 7.784 35.7596 8.19 36.0023 8.722C36.2543 9.24467 36.3803 9.87 36.3803 10.598C36.3803 11.3167 36.2543 11.942 36.0023 12.474C35.7596 12.9967 35.4143 13.4027 34.9663 13.692C34.5183 13.9813 33.9863 14.126 33.3703 14.126C32.7543 14.126 32.227 13.972 31.7883 13.664C31.3496 13.3467 31.051 12.9267 30.8923 12.404H31.0603V16.044C31.0603 16.2307 31.009 16.3707 30.9063 16.464C30.8036 16.5667 30.6636 16.618 30.4863 16.618ZM33.1323 13.216C33.5616 13.216 33.9303 13.1133 34.2383 12.908C34.5556 12.7027 34.7983 12.404 34.9663 12.012C35.1436 11.62 35.2323 11.1487 35.2323 10.598C35.2323 9.74867 35.041 9.1 34.6583 8.652C34.285 8.204 33.7763 7.98 33.1323 7.98C32.7123 7.98 32.3436 8.08267 32.0263 8.288C31.709 8.484 31.4616 8.778 31.2843 9.17C31.1163 9.55267 31.0323 10.0287 31.0323 10.598C31.0323 11.438 31.2236 12.0867 31.6063 12.544C31.989 12.992 32.4976 13.216 33.1323 13.216ZM40.2304 14.126C39.7637 14.126 39.3437 14.0373 38.9704 13.86C38.6064 13.6733 38.3171 13.4213 38.1024 13.104C37.8877 12.7867 37.7804 12.432 37.7804 12.04C37.7804 11.536 37.9064 11.1393 38.1584 10.85C38.4197 10.5607 38.8444 10.3553 39.4324 10.234C40.0297 10.1127 40.8417 10.052 41.8684 10.052H42.4984V10.794H41.8824C41.1264 10.794 40.5291 10.8313 40.0904 10.906C39.6611 10.9713 39.3577 11.088 39.1804 11.256C39.0124 11.424 38.9284 11.662 38.9284 11.97C38.9284 12.3527 39.0591 12.6653 39.3204 12.908C39.5911 13.1507 39.9551 13.272 40.4124 13.272C40.7857 13.272 41.1124 13.1833 41.3924 13.006C41.6817 12.8287 41.9057 12.586 42.0644 12.278C42.2324 11.97 42.3164 11.6153 42.3164 11.214V9.618C42.3164 9.03933 42.1997 8.624 41.9664 8.372C41.7331 8.11067 41.3504 7.98 40.8184 7.98C40.4917 7.98 40.1651 8.022 39.8384 8.106C39.5117 8.19 39.1664 8.32533 38.8024 8.512C38.6717 8.57733 38.5597 8.60067 38.4664 8.582C38.3731 8.554 38.2984 8.50267 38.2424 8.428C38.1864 8.35333 38.1537 8.26933 38.1444 8.176C38.1351 8.07333 38.1537 7.97533 38.2004 7.882C38.2564 7.78867 38.3404 7.714 38.4524 7.658C38.8631 7.45267 39.2691 7.30333 39.6704 7.21C40.0717 7.11667 40.4544 7.07 40.8184 7.07C41.4064 7.07 41.8917 7.168 42.2744 7.364C42.6571 7.55067 42.9417 7.84 43.1284 8.232C43.3151 8.61467 43.4084 9.10933 43.4084 9.716V13.51C43.4084 13.6967 43.3617 13.8413 43.2684 13.944C43.1844 14.0467 43.0584 14.098 42.8904 14.098C42.7131 14.098 42.5777 14.0467 42.4844 13.944C42.3911 13.8413 42.3444 13.6967 42.3444 13.51V12.418H42.4704C42.3957 12.7727 42.2511 13.076 42.0364 13.328C41.8311 13.58 41.5744 13.776 41.2664 13.916C40.9584 14.056 40.6131 14.126 40.2304 14.126ZM46.0862 14.098C45.8996 14.098 45.7549 14.0467 45.6522 13.944C45.5589 13.8413 45.5122 13.6967 45.5122 13.51V7.672C45.5122 7.48533 45.5589 7.34533 45.6522 7.252C45.7456 7.14933 45.8809 7.098 46.0582 7.098C46.2356 7.098 46.3709 7.14933 46.4642 7.252C46.5669 7.34533 46.6182 7.48533 46.6182 7.672V8.806H46.4782C46.6276 8.25533 46.9122 7.83067 47.3322 7.532C47.7522 7.23333 48.2702 7.07467 48.8862 7.056C49.0262 7.04667 49.1382 7.07933 49.2222 7.154C49.3062 7.21933 49.3529 7.336 49.3622 7.504C49.3716 7.66267 49.3342 7.78867 49.2502 7.882C49.1662 7.97533 49.0356 8.03133 48.8582 8.05L48.6342 8.078C47.9996 8.134 47.5096 8.33933 47.1642 8.694C46.8282 9.03933 46.6602 9.51533 46.6602 10.122V13.51C46.6602 13.6967 46.6089 13.8413 46.5062 13.944C46.4129 14.0467 46.2729 14.098 46.0862 14.098ZM53.5138 14.126C52.7951 14.126 52.1745 13.986 51.6518 13.706C51.1385 13.4167 50.7371 13.0107 50.4478 12.488C50.1678 11.9653 50.0278 11.34 50.0278 10.612C50.0278 9.90267 50.1678 9.28667 50.4478 8.764C50.7278 8.232 51.1105 7.81667 51.5958 7.518C52.0905 7.21933 52.6598 7.07 53.3038 7.07C53.7611 7.07 54.1718 7.14933 54.5358 7.308C54.8998 7.45733 55.2078 7.67667 55.4598 7.966C55.7211 8.25533 55.9171 8.60533 56.0478 9.016C56.1878 9.42667 56.2578 9.88867 56.2578 10.402C56.2578 10.5513 56.2158 10.6633 56.1318 10.738C56.0478 10.8033 55.9265 10.836 55.7678 10.836H50.8958V10.094H55.5018L55.2778 10.276C55.2778 9.772 55.2031 9.34733 55.0538 9.002C54.9045 8.64733 54.6851 8.37667 54.3958 8.19C54.1158 8.00333 53.7611 7.91 53.3318 7.91C52.8558 7.91 52.4498 8.022 52.1138 8.246C51.7871 8.46067 51.5398 8.764 51.3718 9.156C51.2038 9.53867 51.1198 9.98667 51.1198 10.5V10.584C51.1198 11.4427 51.3251 12.096 51.7358 12.544C52.1558 12.992 52.7485 13.216 53.5138 13.216C53.8311 13.216 54.1438 13.174 54.4518 13.09C54.7691 13.006 55.0771 12.866 55.3758 12.67C55.5065 12.586 55.6231 12.5487 55.7258 12.558C55.8378 12.558 55.9265 12.5907 55.9918 12.656C56.0571 12.712 56.0991 12.7867 56.1178 12.88C56.1458 12.964 56.1365 13.0573 56.0898 13.16C56.0525 13.2627 55.9731 13.3513 55.8518 13.426C55.5438 13.65 55.1798 13.8227 54.7598 13.944C54.3398 14.0653 53.9245 14.126 53.5138 14.126Z" fill="#888787"/>
<path d="M70.839 5.93499L71.6348 5.13999L75.969 9.47274C76.0389 9.54217 76.0943 9.62473 76.1322 9.71566C76.17 9.8066 76.1895 9.90412 76.1895 10.0026C76.1895 10.1011 76.17 10.1986 76.1322 10.2896C76.0943 10.3805 76.0389 10.4631 75.969 10.5325L71.6348 14.8675L70.8398 14.0725L74.9078 10.0037L70.839 5.93499Z" fill="#888787"/>
</svg>
