<svg width="28" height="34" viewBox="0 0 28 34" fill="none" xmlns="http://www.w3.org/2000/svg">
<path fill-rule="evenodd" clip-rule="evenodd" d="M15.8479 1.03997C16.7959 -0.0970325 18.6424 0.679967 18.4924 2.15297L17.4334 12.5H25.9999C26.2849 12.5001 26.564 12.5814 26.8045 12.7344C27.045 12.8874 27.2369 13.1057 27.3578 13.3638C27.4787 13.6219 27.5235 13.9092 27.487 14.1918C27.4506 14.4745 27.3343 14.741 27.1519 14.96L12.1519 32.96C11.2039 34.097 9.35743 33.32 9.50743 31.847L10.5664 21.5H1.99993C1.71491 21.4999 1.43581 21.4185 1.19533 21.2656C0.954853 21.1126 0.762938 20.8942 0.642062 20.6361C0.521186 20.378 0.476353 20.0908 0.512812 19.8081C0.549271 19.5254 0.665513 19.259 0.847927 19.04L15.8479 1.03997Z" fill="white"/>
</svg>
