<svg width="30" height="30" viewBox="0 0 30 30" fill="none" xmlns="http://www.w3.org/2000/svg">
<path d="M15 30C11.8 30 8.919 29.0875 6.357 27.2625C3.795 25.4375 1.976 23.05 0.9 20.1C0.775 19.725 0.8125 19.375 1.0125 19.05C1.2125 18.725 1.5125 18.5 1.9125 18.375C2.3125 18.25 2.694 18.294 3.057 18.507C3.42 18.72 3.676 19.0135 3.825 19.3875C4.725 21.6625 6.1875 23.5 8.2125 24.9C10.2375 26.3 12.5 27 15 27C17.15 27 19.15 26.469 21 25.407C22.85 24.345 24.3 22.876 25.35 21H22.5C22.075 21 21.719 20.856 21.432 20.568C21.145 20.28 21.001 19.924 21 19.5C20.999 19.076 21.143 18.72 21.432 18.432C21.721 18.144 22.077 18 22.5 18H28.5C28.925 18 29.2815 18.144 29.5695 18.432C29.8575 18.72 30.001 19.076 30 19.5V25.5C30 25.925 29.856 26.2815 29.568 26.5695C29.28 26.8575 28.924 27.001 28.5 27C28.076 26.999 27.72 26.855 27.432 26.568C27.144 26.281 27 25.925 27 25.5V24C25.575 25.9 23.8125 27.375 21.7125 28.425C19.6125 29.475 17.375 30 15 30ZM15 3C12.85 3 10.85 3.5315 9 4.5945C7.15 5.6575 5.7 7.126 4.65 9H7.5C7.925 9 8.2815 9.144 8.5695 9.432C8.8575 9.72 9.001 10.076 9 10.5C8.999 10.924 8.855 11.2805 8.568 11.5695C8.281 11.8585 7.925 12.002 7.5 12H1.5C1.075 12 0.719 11.856 0.432 11.568C0.145 11.28 0.001 10.924 0 10.5V4.5C0 4.075 0.144 3.719 0.432 3.432C0.72 3.145 1.076 3.001 1.5 3C1.924 2.999 2.2805 3.143 2.5695 3.432C2.8585 3.721 3.002 4.077 3 4.5V6C4.425 4.1 6.1875 2.625 8.2875 1.575C10.3875 0.525 12.625 0 15 0C18.2 0 21.0815 0.9125 23.6445 2.7375C26.2075 4.5625 28.026 6.95 29.1 9.9C29.225 10.275 29.1875 10.625 28.9875 10.95C28.7875 11.275 28.4875 11.5 28.0875 11.625C27.6875 11.75 27.306 11.706 26.943 11.493C26.58 11.28 26.324 10.9865 26.175 10.6125C25.275 8.3375 23.8125 6.5 21.7875 5.1C19.7625 3.7 17.5 3 15 3ZM15 19.5C13.75 19.5 12.6875 19.0625 11.8125 18.1875C10.9375 17.3125 10.5 16.25 10.5 15C10.5 13.75 10.9375 12.6875 11.8125 11.8125C12.6875 10.9375 13.75 10.5 15 10.5C16.25 10.5 17.3125 10.9375 18.1875 11.8125C19.0625 12.6875 19.5 13.75 19.5 15C19.5 16.25 19.0625 17.3125 18.1875 18.1875C17.3125 19.0625 16.25 19.5 15 19.5Z" fill="white"/>
</svg>
