<svg width="27" height="27" viewBox="0 0 27 27" fill="none" xmlns="http://www.w3.org/2000/svg">
<g clip-path="url(#clip0_1_5)">
<path d="M4.51248 23.5327H22.4875C22.7795 23.5327 23.0664 23.4569 23.3203 23.3127C23.5742 23.1686 23.7863 22.9611 23.936 22.7104C24.0857 22.4598 24.1678 22.1746 24.1743 21.8827C24.1808 21.5909 24.1114 21.3023 23.973 21.0452L14.9861 4.3548C14.3485 3.17145 12.6515 3.17145 12.0139 4.3548L3.02695 21.0452C2.88855 21.3023 2.81921 21.5909 2.8257 21.8827C2.83219 22.1746 2.91429 22.4598 3.06398 22.7104C3.21367 22.9611 3.42582 23.1686 3.67971 23.3127C3.9336 23.4569 4.22054 23.5327 4.51248 23.5327Z" stroke="white" stroke-linecap="round" stroke-linejoin="round"/>
<path d="M13.1973 10.3038L13.5 16.7374L13.8022 10.3064C13.804 10.2653 13.7975 10.2242 13.783 10.1857C13.7684 10.1472 13.7462 10.1121 13.7176 10.0825C13.689 10.0529 13.6547 10.0294 13.6167 10.0135C13.5788 9.99759 13.538 9.9896 13.4968 9.99C13.4564 9.9904 13.4165 9.99889 13.3794 10.015C13.3423 10.0311 13.3088 10.0544 13.2808 10.0837C13.2529 10.1129 13.2312 10.1475 13.2168 10.1853C13.2025 10.2231 13.1958 10.2634 13.1973 10.3038Z" stroke="white" stroke-linecap="round" stroke-linejoin="round"/>
<path d="M13.5 20.9331C13.2945 20.9331 13.0936 20.8722 12.9227 20.758C12.7519 20.6438 12.6187 20.4815 12.54 20.2917C12.4614 20.1018 12.4408 19.8929 12.4809 19.6913C12.521 19.4898 12.62 19.3046 12.7653 19.1593C12.9106 19.014 13.0957 18.915 13.2973 18.8749C13.4988 18.8349 13.7078 18.8554 13.8976 18.9341C14.0875 19.0127 14.2498 19.1459 14.3639 19.3168C14.4781 19.4876 14.5391 19.6885 14.5391 19.894C14.5391 20.1696 14.4296 20.4339 14.2347 20.6288C14.0399 20.8236 13.7756 20.9331 13.5 20.9331Z" fill="white" stroke="white" stroke-width="0.03125"/>
</g>
<defs>
<clipPath id="clip0_1_5">
<rect width="27" height="27" fill="white"/>
</clipPath>
</defs>
</svg>
