<svg width="18" height="18" viewBox="0 0 18 18" fill="none" xmlns="http://www.w3.org/2000/svg">
<path fill-rule="evenodd" clip-rule="evenodd" d="M16.5 14.25V3.75001C16.5 2.50737 15.4926 1.50001 14.25 1.50001H3.75C2.50736 1.50001 1.5 2.50737 1.5 3.75001V14.25C1.5 15.4926 2.50736 16.5 3.75 16.5H14.25C15.4926 16.5 16.5 15.4926 16.5 14.25ZM8.24565 5.25C8.24565 5.44998 8.32551 5.64168 8.46749 5.7825C8.68206 5.99885 9.00619 6.06387 9.28761 5.94703C9.56902 5.83019 9.75177 5.5547 9.74999 5.25C9.75177 4.9453 9.56902 4.66982 9.28761 4.55297C9.00619 4.43613 8.68206 4.50116 8.46749 4.7175C8.32551 4.85833 8.24565 5.05002 8.24565 5.25ZM15 3.75001C15 3.3358 14.6642 3.00001 14.25 3.00001H3.74997C3.33576 3.00001 2.99997 3.3358 2.99997 3.75001V14.25C2.99997 14.6642 3.33576 15 3.74997 15H14.25C14.6642 15 15 14.6642 15 14.25V3.75001ZM9.74997 12H9.85497C10.2692 12 10.605 12.3358 10.605 12.75C10.605 13.1642 10.2692 13.5 9.85497 13.5H8.14497C7.73076 13.5 7.39497 13.1642 7.39497 12.75C7.39497 12.3358 7.73076 12 8.14497 12H8.24997V8.25C7.83576 8.25 7.49997 7.91422 7.49997 7.5C7.49997 7.08579 7.83576 6.75 8.24997 6.75H8.99997C9.41419 6.75 9.74997 7.08579 9.74997 7.5V12Z" fill="#324053"/>
</svg>
