<svg width="26" height="24" viewBox="0 0 26 24" fill="none" xmlns="http://www.w3.org/2000/svg">
<path d="M20.6163 21L13.9896 14.7C13.4637 15.1 12.8589 15.4167 12.1752 15.65C11.4915 15.8833 10.7639 16 9.99259 16C8.08172 16 6.46467 15.3707 5.14144 14.112C3.81822 12.8533 3.15625 11.316 3.15555 9.5C3.15485 7.684 3.81681 6.14667 5.14144 4.888C6.46608 3.62933 8.08312 3 9.99259 3C11.902 3 13.5194 3.62933 14.8448 4.888C16.1701 6.14667 16.8317 7.684 16.8296 9.5C16.8296 10.2333 16.7069 10.925 16.4615 11.575C16.216 12.225 15.883 12.8 15.4622 13.3L22.0889 19.6L20.6163 21ZM9.99259 14C11.3074 14 12.4252 13.5627 13.3459 12.688C14.2666 11.8133 14.7266 10.7507 14.7259 9.5C14.7252 8.24933 14.2652 7.187 13.3459 6.313C12.4266 5.439 11.3088 5.00133 9.99259 5C8.67637 4.99867 7.55895 5.43633 6.64033 6.313C5.72172 7.18967 5.26136 8.252 5.25925 9.5C5.25715 10.748 5.71751 11.8107 6.64033 12.688C7.56316 13.5653 8.68058 14.0027 9.99259 14Z" fill="black" fill-opacity="0.5"/>
</svg>
